<svg width="64" height="64" viewBox="0 0 64 64" fill="none" xmlns="http://www.w3.org/2000/svg">
<path d="M61.1639 29.7844L35.6407 7.42503C30.1269 2.57887 23.5852 -0.0111481 16.8872 3.60689e-05H0V5.62503H16.8872C22.692 5.61523 28.3614 7.85896 33.1407 12.0575L35.4284 14.0625H15.4485V19.6875H41.8488L58.6628 34.4188C59.0378 34.7472 59.3205 35.2198 59.4697 35.7676C59.6188 36.3154 59.6265 36.9096 59.4916 37.4634C59.3568 38.0172 59.0864 38.5015 58.7201 38.8454C58.3538 39.1894 57.9108 39.3749 57.4558 39.375H0V45H57.4558C58.8525 44.9995 60.2124 44.4297 61.3369 43.3739C62.4613 42.3181 63.2913 40.8317 63.7055 39.1318C64.1197 37.432 64.0964 35.6079 63.6391 33.9261C63.1817 32.2443 62.3147 30.793 61.1639 29.7844Z" fill="#F5F5F5"/>
<path d="M63 53H1V58.5H5.42857V64H9.85714V58.5H20.9286V64H25.3571V58.5H36.4286V64H40.8571V58.5H51.9286V64H56.3571V58.5H63V53Z" fill="#F5F5F5"/>
</svg>
